<svg width="24" height="24" viewBox="0 0 24 24" fill="none" xmlns="http://www.w3.org/2000/svg">
<path d="M13.0152 19.9355L13.0136 19.937C12.4446 20.4536 11.5673 20.4534 10.9984 19.9294L10.996 19.9272L10.886 19.8272L10.8851 19.8264C8.24965 17.4419 6.11371 15.5059 4.64632 13.687C3.1862 11.8771 2.44017 10.2451 2.49937 8.47434C2.55409 6.92814 3.34728 5.44772 4.62106 4.58047L4.62133 4.58028C7.01936 2.94526 9.99957 3.69588 11.6195 5.59196L11.9997 6.0369L12.3798 5.59196C14.0008 3.69467 16.9804 2.93651 19.3769 4.57956L19.3783 4.58047C20.6522 5.44781 21.4454 6.92843 21.5 8.4748L21.5 8.4752C21.5639 10.2452 20.8184 11.8768 19.3567 13.6896C17.8939 15.5037 15.767 17.4361 13.1462 19.8173L13.1152 19.8455L13.1134 19.8471L13.0152 19.9355Z" stroke="#121212"/>
</svg>
