<svg width="180" height="180" viewBox="0 0 180 180" fill="none" xmlns="http://www.w3.org/2000/svg">
<path fill-rule="evenodd" clip-rule="evenodd" d="M93.751 60L41.2626 90L41.262 97.4928L60.0067 86.7815V135H41.2594L33.751 142.5H93.7384L93.7395 135H90.0067V69.6387L93.7494 67.5V70.3062L93.751 60Z" fill="#F9F2FF"/>
<path d="M107.325 124.975H97.425V125.245C97.425 125.435 97.455 125.56 97.515 125.62C97.585 125.68 97.69 125.71 97.83 125.71H107.325V127.39H96.87C96.33 127.39 95.94 127.245 95.7 126.955C95.46 126.675 95.34 126.265 95.34 125.725V123.43H105.24V123.175C105.24 122.985 105.205 122.86 105.135 122.8C105.075 122.74 104.975 122.71 104.835 122.71H95.34V121.03H105.795C106.335 121.03 106.725 121.175 106.965 121.465C107.205 121.745 107.325 122.155 107.325 122.695V124.975ZM98.79 117.79C98.97 118.14 99.205 118.45 99.495 118.72C99.785 118.98 100.115 119.205 100.485 119.395C100.865 119.585 101.275 119.735 101.715 119.845C102.165 119.955 102.63 120.025 103.11 120.055V118.18C102.63 118.14 102.19 118.05 101.79 117.91C101.39 117.77 101.04 117.56 100.74 117.28C100.44 117.01 100.205 116.665 100.035 116.245C99.865 115.825 99.78 115.3 99.78 114.67V114.385H97.77V114.67C97.77 115.3 97.68 115.825 97.5 116.245C97.33 116.665 97.095 117.01 96.795 117.28C96.495 117.56 96.145 117.77 95.745 117.91C95.355 118.05 94.92 118.14 94.44 118.18V120.055C95.41 119.995 96.27 119.775 97.02 119.395C97.78 119.015 98.37 118.48 98.79 117.79ZM105.24 120.37V114.385H107.325V116.26H108.66V118.09H107.325V120.37H105.24ZM118.264 123.01C118.264 123.46 118.164 123.88 117.964 124.27C117.774 124.65 117.504 124.98 117.154 125.26C116.804 125.54 116.379 125.76 115.879 125.92C115.389 126.08 114.839 126.16 114.229 126.16C113.629 126.16 113.079 126.08 112.579 125.92C112.089 125.76 111.664 125.54 111.304 125.26C110.954 124.98 110.679 124.65 110.479 124.27C110.289 123.88 110.194 123.46 110.194 123.01V117.52C110.194 117.07 110.289 116.655 110.479 116.275C110.679 115.885 110.954 115.555 111.304 115.285C111.664 115.005 112.089 114.785 112.579 114.625C113.079 114.465 113.629 114.385 114.229 114.385C114.839 114.385 115.389 114.465 115.879 114.625C116.379 114.785 116.804 115.005 117.154 115.285C117.504 115.555 117.774 115.885 117.964 116.275C118.164 116.655 118.264 117.07 118.264 117.52V123.01ZM120.694 114.385H122.779V118.48H124.114V120.31H122.779V127.39H120.694V114.385ZM112.279 122.89C112.279 123.08 112.319 123.265 112.399 123.445C112.489 123.615 112.614 123.765 112.774 123.895C112.944 124.025 113.149 124.13 113.389 124.21C113.629 124.29 113.909 124.33 114.229 124.33C114.539 124.33 114.814 124.29 115.054 124.21C115.304 124.13 115.509 124.025 115.669 123.895C115.839 123.765 115.964 123.615 116.044 123.445C116.134 123.265 116.179 123.08 116.179 122.89V117.61C116.179 117.22 116.009 116.885 115.669 116.605C115.339 116.325 114.859 116.185 114.229 116.185C113.599 116.185 113.114 116.325 112.774 116.605C112.444 116.885 112.279 117.22 112.279 117.61V122.89ZM136.148 125.38H125.648V123.58H129.098V121.51H127.418C127.178 121.51 126.963 121.465 126.773 121.375C126.593 121.285 126.438 121.165 126.308 121.015C126.188 120.855 126.098 120.68 126.038 120.49C125.978 120.29 125.948 120.085 125.948 119.875V114.385H128.033V116.155H132.278V114.385H134.363V121.51H131.213V123.58H136.148V114.385H138.233V118.48H139.568V120.31H138.233V127.39H136.148V125.38ZM132.278 119.68V117.985H128.033V119.335C128.033 119.565 128.143 119.68 128.363 119.68H132.278ZM151.482 114.385C151.902 114.385 152.292 114.465 152.652 114.625C153.012 114.785 153.317 115.005 153.567 115.285C153.827 115.565 154.027 115.89 154.167 116.26C154.317 116.63 154.392 117.025 154.392 117.445C154.392 117.865 154.317 118.265 154.167 118.645C154.027 119.015 153.827 119.34 153.567 119.62C153.317 119.89 153.012 120.105 152.652 120.265C152.292 120.425 151.902 120.505 151.482 120.505H144.012C143.592 120.505 143.202 120.425 142.842 120.265C142.482 120.105 142.172 119.89 141.912 119.62C141.662 119.34 141.462 119.015 141.312 118.645C141.172 118.265 141.102 117.865 141.102 117.445C141.102 117.025 141.172 116.63 141.312 116.26C141.462 115.89 141.662 115.565 141.912 115.285C142.172 115.005 142.482 114.785 142.842 114.625C143.202 114.465 143.592 114.385 144.012 114.385H151.482ZM154.392 123.82H151.902V127.39H149.802V123.82H145.722V127.39H143.622V123.82H141.102V121.96H154.392V123.82ZM151.227 118.675C151.577 118.675 151.842 118.56 152.022 118.33C152.212 118.09 152.307 117.795 152.307 117.445C152.307 117.095 152.212 116.8 152.022 116.56C151.842 116.32 151.577 116.2 151.227 116.2H144.267C143.917 116.2 143.647 116.32 143.457 116.56C143.277 116.8 143.187 117.095 143.187 117.445C143.187 117.795 143.277 118.09 143.457 118.33C143.647 118.56 143.917 118.675 144.267 118.675H151.227Z" fill="#F9F2FF"/>
<path fill-rule="evenodd" clip-rule="evenodd" d="M147 105C147 73.5195 121.48 48 90 48C58.5198 48 33 73.5198 33 105C33 114.587 35.3668 123.621 39.5481 131.55L31.832 139.266C25.9023 129.222 22.5 117.508 22.5 105C22.5 67.7208 52.7208 37.5 90 37.5C127.279 37.5 157.5 67.7205 157.5 105H147Z" fill="#F9F2FF"/>
</svg>
